<?xml version="1.0" encoding="UTF-8" standalone="no"?><!DOCTYPE svg PUBLIC "-//W3C//DTD SVG 1.1//EN" "http://www.w3.org/Graphics/SVG/1.1/DTD/svg11.dtd"><svg width="40%" height="40%" viewBox="0 0 171 154" version="1.1" xmlns="http://www.w3.org/2000/svg" xmlns:xlink="http://www.w3.org/1999/xlink" xml:space="preserve" xmlns:serif="http://www.serif.com/" style="fill-rule:evenodd;clip-rule:evenodd;stroke-linejoin:round;stroke-miterlimit:1.41421;"><text x="-4.297px" y="152.73px" style="font-family:'Futura-Medium', 'Futura', sans-serif;font-weight:500;font-size:47.835px;fill:#fff;">D<tspan x="26.581px 51.444px 60.789px 85.651px 103.08px 127.943px 152.805px " y="152.73px 152.73px 152.73px 152.73px 152.73px 152.73px 152.73px ">ataLabs</tspan></text><g id="Vert"><path id="curve0" d="M24.414,45.676c0,-25.227 20.468,-45.676 45.695,-45.676c14.794,0 28.407,7.14 36.88,18.697c1.904,-0.286 3.827,-0.419 5.769,-0.419c21.876,0 39.602,17.726 39.602,39.602c0,0.21 0,0.4 0,0.61c10.891,5.559 18.278,16.907 18.278,29.854c0,18.506 -15.003,33.509 -33.509,33.509c-32.501,0 -64.983,0 -97.483,0c-21.877,0 -39.602,-17.726 -39.602,-39.602c0,-16.393 9.995,-30.578 24.37,-36.575Z" style="fill:#fff;"/><path id="curve01" serif:id="curve0" d="M29.22,65.259c9.614,20.214 27.812,15.916 43.376,32.728c5.409,-11.933 -0.541,-25.094 -9.178,-30.222c-14.307,-8.481 -29.469,-4.597 -38.176,-17.593c-10.975,21.377 -3.856,46.073 10.12,55.201c8.305,5.427 21.374,7.518 30.429,1.494c3.071,3.12 9.789,7.219 9.928,14.986l10.853,0c-0.332,-6.456 -0.681,-12.497 0.314,-15.932c1.588,-5.494 4.763,-8.929 8.48,-12.365c9.91,6.025 24.235,3.933 33.325,-1.494c15.32,-9.128 23.119,-33.807 11.097,-55.2c-9.544,12.978 -26.154,9.095 -41.84,17.592c-9.474,5.129 -16,18.29 -10.068,30.223c17.065,-16.813 37.008,-12.514 47.529,-32.729c-9.474,22.837 -28.929,20.929 -44.702,37.044c-5.828,4.597 -12.475,12.779 -15.023,19.999c-1.57,-2.373 -4.623,-5.527 -5.67,-6.689c-14.534,-15.999 -32.157,-14.223 -40.794,-37.043Z" style="fill:#26a69a;"/></g></svg>
